<svg width="14" height="12" viewBox="0 0 14 12" fill="none" xmlns="http://www.w3.org/2000/svg">
<g id="Adults">
<path id="Vector" d="M5 5.33333C5.52742 5.33333 6.04299 5.17694 6.48152 4.88392C6.92005 4.5909 7.26185 4.17443 7.46368 3.68716C7.66551 3.19989 7.71832 2.66371 7.61543 2.14643C7.51254 1.62914 7.25856 1.15399 6.88562 0.781049C6.51268 0.408109 6.03753 0.154134 5.52024 0.0512404C5.00296 -0.0516535 4.46678 0.00115542 3.97951 0.202989C3.49224 0.404823 3.07577 0.746616 2.78275 1.18515C2.48973 1.62368 2.33334 2.13925 2.33334 2.66667C2.33334 3.37391 2.61429 4.05219 3.11438 4.55229C3.61448 5.05238 4.29276 5.33333 5 5.33333ZM5 1.33333C5.26371 1.33333 5.5215 1.41153 5.74076 1.55804C5.96003 1.70455 6.13092 1.91279 6.23184 2.15642C6.33276 2.40006 6.35916 2.66815 6.30772 2.92679C6.25627 3.18543 6.12928 3.42301 5.94281 3.60948C5.75634 3.79595 5.51876 3.92293 5.26012 3.97438C5.00148 4.02583 4.73339 3.99942 4.48976 3.89851C4.24612 3.79759 4.03788 3.62669 3.89138 3.40743C3.74487 3.18816 3.66667 2.93038 3.66667 2.66667C3.66667 2.31305 3.80714 1.97391 4.05719 1.72386C4.30724 1.47381 4.64638 1.33333 5 1.33333ZM10.3333 6.66667C10.7289 6.66667 11.1156 6.54937 11.4445 6.32961C11.7734 6.10984 12.0297 5.79749 12.1811 5.43203C12.3325 5.06658 12.3721 4.66445 12.2949 4.27649C12.2177 3.88852 12.0273 3.53216 11.7475 3.25245C11.4678 2.97275 11.1115 2.78227 10.7235 2.7051C10.3356 2.62793 9.93342 2.66753 9.56797 2.81891C9.20252 2.97028 8.89016 3.22663 8.6704 3.55553C8.45063 3.88443 8.33334 4.2711 8.33334 4.66667C8.33334 5.1971 8.54405 5.70581 8.91912 6.08088C9.29419 6.45595 9.8029 6.66667 10.3333 6.66667ZM10.3333 4C10.4652 4 10.5941 4.0391 10.7037 4.11235C10.8133 4.18561 10.8988 4.28973 10.9493 4.41154C10.9997 4.53336 11.0129 4.66741 10.9872 4.79673C10.9615 4.92605 10.898 5.04484 10.8047 5.13807C10.7115 5.23131 10.5927 5.2948 10.4634 5.32052C10.3341 5.34625 10.2 5.33305 10.0782 5.28259C9.9564 5.23213 9.85228 5.14668 9.77902 5.03705C9.70577 4.92741 9.66667 4.79852 9.66667 4.66667C9.66667 4.48986 9.73691 4.32029 9.86193 4.19526C9.98695 4.07024 10.1565 4 10.3333 4ZM10.3333 7.33333C9.59455 7.33415 8.87697 7.58038 8.29333 8.03333C7.64034 7.3829 6.80937 6.9404 5.90522 6.76162C5.00106 6.58284 4.06422 6.67579 3.21282 7.02876C2.36143 7.38172 1.63361 7.97889 1.12116 8.74496C0.608715 9.51102 0.334583 10.4117 0.333336 11.3333C0.333336 11.5101 0.403574 11.6797 0.528598 11.8047C0.653622 11.9298 0.823192 12 1 12C1.17681 12 1.34638 11.9298 1.47141 11.8047C1.59643 11.6797 1.66667 11.5101 1.66667 11.3333C1.66667 10.4493 2.01786 9.60143 2.64298 8.97631C3.2681 8.35119 4.11595 8 5 8C5.88406 8 6.7319 8.35119 7.35702 8.97631C7.98215 9.60143 8.33334 10.4493 8.33334 11.3333C8.33334 11.5101 8.40357 11.6797 8.5286 11.8047C8.65362 11.9298 8.82319 12 9 12C9.17681 12 9.34638 11.9298 9.47141 11.8047C9.59643 11.6797 9.66667 11.5101 9.66667 11.3333C9.66826 10.5523 9.47095 9.7837 9.09334 9.1C9.38795 8.86719 9.74216 8.72202 10.1154 8.68111C10.4887 8.6402 10.8659 8.70519 11.204 8.86865C11.542 9.03211 11.8272 9.28744 12.027 9.60541C12.2267 9.92339 12.3329 10.2912 12.3333 10.6667C12.3333 10.8435 12.4036 11.013 12.5286 11.1381C12.6536 11.2631 12.8232 11.3333 13 11.3333C13.1768 11.3333 13.3464 11.2631 13.4714 11.1381C13.5964 11.013 13.6667 10.8435 13.6667 10.6667C13.6667 9.78261 13.3155 8.93476 12.6904 8.30964C12.0652 7.68452 11.2174 7.33333 10.3333 7.33333Z" fill="#FF7865"/>
</g>
</svg>
