<svg width="22" height="12" viewBox="0 0 22 12" fill="none" xmlns="http://www.w3.org/2000/svg">
<g id="air-ticket-icon 1" clip-path="url(#clip0_352_265)">
<path id="Vector" fill-rule="evenodd" clip-rule="evenodd" d="M1.09947 4.33029e-06L20.6184 0.000428508C20.9204 -0.000844026 21.1957 0.123016 21.3951 0.321956C21.594 0.520895 21.7179 0.796187 21.7179 1.0982V10.901C21.7179 11.2034 21.594 11.4783 21.3951 11.6772C21.1957 11.8761 20.9204 12 20.6189 12L1.09947 11.9992C0.799151 12.0004 0.523859 11.8766 0.324496 11.6772L0.322375 11.6751C0.124284 11.4761 0 11.2017 0 10.901V8.68039C0 8.52726 0.115376 8.40085 0.263838 8.38304C0.782608 8.27106 1.23733 7.98346 1.56097 7.58686C1.88335 7.1911 2.0772 6.68505 2.0772 6.1332C2.0772 5.58134 1.88335 5.07487 1.56097 4.67954C1.23224 4.27657 0.76861 3.98601 0.23966 3.87827C0.172329 3.86449 0.111825 3.82787 0.0683845 3.77462C0.0249445 3.72136 0.00123667 3.65473 0.00127253 3.58601L0 1.09905C0 0.796611 0.12386 0.521319 0.322799 0.32238C0.522163 0.123016 0.797454 -0.000844026 1.09947 4.33029e-06ZM17.0617 11.3226C17.0617 11.351 17.0642 11.3773 17.0698 11.4023L5.1088 11.4015V0.597247H17.0698C17.0642 0.622274 17.0617 0.648573 17.0617 0.676993V1.34253C17.0617 1.7807 17.7272 1.7807 17.7272 1.34253V0.676993C17.7272 0.648573 17.7247 0.62185 17.7192 0.597247H20.6184C20.7554 0.598096 20.881 0.654935 20.9718 0.745285C21.0621 0.83606 21.119 0.961616 21.119 1.0982V10.901C21.119 11.038 21.0621 11.1631 20.9718 11.2535C20.8806 11.3446 20.7554 11.4011 20.6189 11.4023H17.7192C17.7247 11.3773 17.7272 11.351 17.7272 11.3226V10.6575C17.7272 10.2193 17.0617 10.2193 17.0617 10.6575V11.3226ZM17.0617 9.32683C17.0617 9.76501 17.7272 9.76501 17.7272 9.32683V8.6613C17.7272 8.22312 17.0617 8.22312 17.0617 8.6613V9.32683ZM17.0617 7.33065C17.0617 7.76883 17.7272 7.76883 17.7272 7.33065V6.66512C17.7272 6.22694 17.0617 6.22694 17.0617 6.66512V7.33065ZM17.0617 5.33447C17.0617 5.77264 17.7272 5.77264 17.7272 5.33447V4.66936C17.7272 4.23118 17.0617 4.23118 17.0617 4.66936V5.33447ZM17.0617 3.33829C17.0617 3.77646 17.7272 3.77646 17.7272 3.33829V2.67318C17.7272 2.235 17.0617 2.235 17.0617 2.67318V3.33829ZM8.50816 8.32577C8.50816 8.11411 8.62862 7.90753 8.82417 7.67593L7.69204 6.95992C7.62078 6.92896 7.62205 6.88484 7.66362 6.83394L7.9037 6.62991C7.94782 6.60276 7.99363 6.59131 8.04326 6.60488L9.4405 6.84115L10.6044 5.58049L7.88674 3.74168C7.81844 3.70096 7.8125 3.65515 7.88292 3.60255L8.27486 3.28951L11.8184 4.28548L12.8653 3.16607C13.2165 2.86236 13.558 2.7262 13.8197 2.79067C13.9639 2.8263 14.0153 2.86915 14.0594 3.00488C14.1455 3.27042 14.0119 3.62715 13.6942 3.99449L12.5747 5.04179L13.5707 8.58495L13.2577 8.97731C13.2047 9.04772 13.1588 9.04179 13.1185 8.97307L11.2793 6.25578L10.0187 7.41973L10.2553 8.81655C10.2685 8.86618 10.2575 8.91241 10.2303 8.9561L10.0259 9.19619C9.97496 9.23776 9.93085 9.23903 9.89988 9.16819L9.18387 8.03564C8.95142 8.23203 8.74442 8.3525 8.53191 8.35207C8.51197 8.35165 8.50816 8.34486 8.50816 8.32577Z" fill="url(#paint0_linear_352_265)"/>
</g>
<defs>
<linearGradient id="paint0_linear_352_265" x1="10.8589" y1="0" x2="10.8589" y2="12" gradientUnits="userSpaceOnUse">
<stop stop-color="#FF7865"/>
<stop offset="1" stop-color="#D65445"/>
</linearGradient>
<clipPath id="clip0_352_265">
<rect width="21.7179" height="12" fill="white"/>
</clipPath>
</defs>
</svg>
