<svg width="14" height="12" viewBox="0 0 14 12" fill="none" xmlns="http://www.w3.org/2000/svg">
<g id="building-icon (1) 1" clip-path="url(#clip0_691_258)">
<g id="Group">
<path id="Vector" fill-rule="evenodd" clip-rule="evenodd" d="M0 10.6222H1.56249V0.166652C1.56249 0.0753649 1.63786 0 1.72915 0H7.02167C7.11296 0 7.18832 0.0753649 7.18832 0.166652V4.08669H11.8716C11.9628 4.08669 12.0382 4.16205 12.0382 4.25334V10.6211H13.0434V12H0V10.6222ZM2.89996 1.57311H3.98266C4.01557 1.57311 4.04317 1.60071 4.04317 1.63361V2.9456C4.04317 2.97851 4.01557 3.0061 3.98266 3.0061H2.89996C2.86705 3.0061 2.83945 2.97851 2.83945 2.9456V1.63361C2.83945 1.60071 2.86705 1.57311 2.89996 1.57311ZM4.73419 8.09907H5.8169C5.8498 8.09907 5.8774 8.12667 5.8774 8.15958V9.47156C5.8774 9.50447 5.8498 9.53207 5.8169 9.53207H4.73419C4.70128 9.53207 4.67368 9.50447 4.67368 9.47156V8.15958C4.67368 8.12561 4.70128 8.09907 4.73419 8.09907ZM2.89996 8.09907H3.98266C4.01557 8.09907 4.04317 8.12667 4.04317 8.15958V9.47156C4.04317 9.50447 4.01557 9.53207 3.98266 9.53207H2.89996C2.86705 9.53207 2.83945 9.50447 2.83945 9.47156V8.15958C2.83945 8.12561 2.86705 8.09907 2.89996 8.09907ZM4.73419 5.92304H5.8169C5.8498 5.92304 5.8774 5.95064 5.8774 5.98355V7.29553C5.8774 7.32844 5.8498 7.35604 5.8169 7.35604H4.73419C4.70128 7.35604 4.67368 7.32844 4.67368 7.29553V5.98461C4.67368 5.95064 4.70128 5.92304 4.73419 5.92304ZM2.89996 5.92304H3.98266C4.01557 5.92304 4.04317 5.95064 4.04317 5.98355V7.29553C4.04317 7.32844 4.01557 7.35604 3.98266 7.35604H2.89996C2.86705 7.35604 2.83945 7.32844 2.83945 7.29553V5.98461C2.83945 5.95064 2.86705 5.92304 2.89996 5.92304ZM4.73419 3.74808H5.8169C5.8498 3.74808 5.8774 3.77567 5.8774 3.80858V5.12057C5.8774 5.15347 5.8498 5.18107 5.8169 5.18107H4.73419C4.70128 5.18107 4.67368 5.15347 4.67368 5.12057V3.80858C4.67368 3.77567 4.70128 3.74808 4.73419 3.74808ZM2.89996 3.74808H3.98266C4.01557 3.74808 4.04317 3.77567 4.04317 3.80858V5.12057C4.04317 5.15347 4.01557 5.18107 3.98266 5.18107H2.89996C2.86705 5.18107 2.83945 5.15347 2.83945 5.12057V3.80858C2.83945 3.77567 2.86705 3.74808 2.89996 3.74808ZM4.73419 1.57311H5.8169C5.8498 1.57311 5.8774 1.60071 5.8774 1.63361V2.9456C5.8774 2.97851 5.8498 3.0061 5.8169 3.0061H4.73419C4.70128 3.0061 4.67368 2.97851 4.67368 2.9456V1.63361C4.67368 1.60071 4.70128 1.57311 4.73419 1.57311ZM2.45944 0.777001H6.27227C6.33808 0.777001 6.39222 0.841751 6.39222 0.920301V10.0352C6.39222 10.1138 6.33808 10.1785 6.27227 10.1785H2.45944C2.39363 10.1785 2.3395 10.1138 2.3395 10.0352V0.920301C2.3395 0.841751 2.39363 0.777001 2.45944 0.777001ZM7.70739 5.67147H8.79009C8.823 5.67147 8.8506 5.69907 8.8506 5.73198V7.04396C8.8506 7.07687 8.823 7.10447 8.79009 7.10447H7.70739C7.67448 7.10447 7.64688 7.07687 7.64688 7.04396V5.73198C7.64688 5.69907 7.67448 5.67147 7.70739 5.67147ZM9.54162 8.09907H10.6243C10.6572 8.09907 10.6848 8.12667 10.6848 8.15958V9.47156C10.6848 9.50447 10.6572 9.53207 10.6243 9.53207H9.54162C9.50871 9.53207 9.48112 9.50447 9.48112 9.47156V8.15958C9.48112 8.12561 9.50871 8.09907 9.54162 8.09907ZM7.70739 8.09907H8.79009C8.823 8.09907 8.8506 8.12667 8.8506 8.15958V9.47156C8.8506 9.50447 8.823 9.53207 8.79009 9.53207H7.70739C7.67448 9.53207 7.64688 9.50447 7.64688 9.47156V8.15958C7.64688 8.12561 7.67448 8.09907 7.70739 8.09907ZM9.54162 5.67147H10.6243C10.6572 5.67147 10.6848 5.69907 10.6848 5.73198V7.04396C10.6848 7.07687 10.6572 7.10447 10.6243 7.10447H9.54162C9.50871 7.10447 9.48112 7.07687 9.48112 7.04396V5.73198C9.48112 5.69907 9.50871 5.67147 9.54162 5.67147ZM7.30933 4.86369H11.1222C11.188 4.86369 11.2421 4.92844 11.2421 5.00699V10.0352C11.2421 10.1138 11.188 10.1785 11.1222 10.1785H7.30933C7.24352 10.1785 7.18939 10.1138 7.18939 10.0352V5.00699C7.18939 4.92844 7.24352 4.86369 7.30933 4.86369Z" fill="#FF7865"/>
</g>
</g>
<defs>
<clipPath id="clip0_691_258">
<rect width="13.0434" height="12" fill="white"/>
</clipPath>
</defs>
</svg>
