<svg width="12" height="10" viewBox="0 0 12 10" fill="none" xmlns="http://www.w3.org/2000/svg">
<g id="car.fill">
<g id="Group">
<path id="Vector" d="M2.07422 3.15345C2.18973 2.60602 2.43582 1.88783 2.60156 1.59653C2.73717 1.36048 2.88281 1.25501 3.15402 1.21986C3.53571 1.16963 4.38951 1.13448 5.94141 1.13448C7.49833 1.13448 8.35213 1.15959 8.7288 1.21986C9 1.26004 9.14062 1.36048 9.28123 1.59653C9.45201 1.8828 9.68306 2.60602 9.8136 3.15345C9.85882 3.33928 9.77846 3.40959 9.58762 3.39954C8.75391 3.3443 7.7595 3.29408 5.94141 3.29408C4.12835 3.29408 3.13393 3.3443 2.30022 3.39954C2.10435 3.40959 2.02902 3.33928 2.07422 3.15345ZM2.32031 6.86496C1.86328 6.86496 1.51172 6.51336 1.51172 6.05633C1.51172 5.59429 1.86328 5.24775 2.32031 5.24775C2.77734 5.24775 3.12891 5.59429 3.12891 6.05633C3.12891 6.51336 2.77734 6.86496 2.32031 6.86496ZM4.6155 6.66405C4.26897 6.66405 4.03293 6.42799 4.03293 6.08145C4.03293 5.73996 4.26897 5.50391 4.6155 5.50391H7.27234C7.61383 5.50391 7.84989 5.73996 7.84989 6.08145C7.84989 6.42799 7.61383 6.66405 7.27234 6.66405H4.6155ZM9.5625 6.86496C9.10547 6.86496 8.75893 6.51336 8.75893 6.05633C8.75893 5.59429 9.10547 5.24775 9.5625 5.24775C10.0245 5.24775 10.3711 5.59429 10.3711 6.05633C10.3711 6.51336 10.0245 6.86496 9.5625 6.86496ZM5.94141 8.22096C7.62891 8.22096 9.8739 8.13559 10.8231 8.02511C11.5062 7.94976 11.8828 7.57309 11.8828 6.93023V6.04631C11.8828 5.19752 11.712 4.72545 11.25 4.12276L10.8231 3.57533C10.6423 2.67131 10.3058 1.72209 10.135 1.35044C9.86383 0.782917 9.34654 0.44642 8.67857 0.356018C8.34206 0.310817 7.24217 0.285706 5.94141 0.285706C4.64563 0.285706 3.54576 0.315839 3.20926 0.356018C2.5413 0.436375 2.01897 0.782917 1.75279 1.35044C1.57701 1.72209 1.24554 2.67131 1.05971 3.57533L0.637834 4.12276C0.170759 4.72545 0 5.19752 0 6.04631V6.93023C0 7.57309 0.381697 7.94976 1.05971 8.02511C2.01395 8.13559 4.25391 8.22096 5.94141 8.22096ZM0.667967 9.60212H1.25558C1.63225 9.60212 1.92355 9.31082 1.92355 8.93916V7.68859L0 6.77453V8.93916C0 9.31082 0.291295 9.60212 0.667967 9.60212ZM10.6272 9.60212H11.2199C11.5965 9.60212 11.8828 9.31082 11.8828 8.93916V6.77453L9.96429 7.68859V8.93916C9.96429 9.31082 10.2506 9.60212 10.6272 9.60212Z" fill="#FF7865"/>
</g>
</g>
</svg>
