<svg width="28" height="28" viewBox="0 0 28 28" fill="none" xmlns="http://www.w3.org/2000/svg">
<path d="M4.83984 9.69141C5.10938 8.41406 5.68359 6.73828 6.07031 6.05859C6.38672 5.50781 6.72656 5.26172 7.35938 5.17969C8.25 5.0625 10.2422 4.98047 13.8633 4.98047C17.4961 4.98047 19.4883 5.03906 20.3672 5.17969C21 5.27344 21.3281 5.50781 21.6562 6.05859C22.0547 6.72656 22.5938 8.41406 22.8984 9.69141C23.0039 10.125 22.8164 10.2891 22.3711 10.2656C20.4258 10.1367 18.1055 10.0195 13.8633 10.0195C9.63281 10.0195 7.3125 10.1367 5.36719 10.2656C4.91016 10.2891 4.73438 10.125 4.83984 9.69141ZM5.41406 18.3516C4.34766 18.3516 3.52734 17.5312 3.52734 16.4648C3.52734 15.3867 4.34766 14.5781 5.41406 14.5781C6.48047 14.5781 7.30078 15.3867 7.30078 16.4648C7.30078 17.5312 6.48047 18.3516 5.41406 18.3516ZM10.7695 17.8828C9.96094 17.8828 9.41016 17.332 9.41016 16.5234C9.41016 15.7266 9.96094 15.1758 10.7695 15.1758H16.9688C17.7656 15.1758 18.3164 15.7266 18.3164 16.5234C18.3164 17.332 17.7656 17.8828 16.9688 17.8828H10.7695ZM22.3125 18.3516C21.2461 18.3516 20.4375 17.5312 20.4375 16.4648C20.4375 15.3867 21.2461 14.5781 22.3125 14.5781C23.3906 14.5781 24.1992 15.3867 24.1992 16.4648C24.1992 17.5312 23.3906 18.3516 22.3125 18.3516ZM13.8633 21.5156C17.8008 21.5156 23.0391 21.3164 25.2539 21.0586C26.8477 20.8828 27.7266 20.0039 27.7266 18.5039V16.4414C27.7266 14.4609 27.3281 13.3594 26.25 11.9531L25.2539 10.6758C24.832 8.56641 24.0469 6.35156 23.6484 5.48438C23.0156 4.16016 21.8086 3.375 20.25 3.16406C19.4648 3.05859 16.8984 3 13.8633 3C10.8398 3 8.27344 3.07031 7.48828 3.16406C5.92969 3.35156 4.71094 4.16016 4.08984 5.48438C3.67969 6.35156 2.90625 8.56641 2.47266 10.6758L1.48828 11.9531C0.398438 13.3594 0 14.4609 0 16.4414V18.5039C0 20.0039 0.890625 20.8828 2.47266 21.0586C4.69922 21.3164 9.92578 21.5156 13.8633 21.5156ZM1.55859 24.7383H2.92969C3.80859 24.7383 4.48828 24.0586 4.48828 23.1914V20.2734L0 18.1406V23.1914C0 24.0586 0.679688 24.7383 1.55859 24.7383ZM24.7969 24.7383H26.1797C27.0586 24.7383 27.7266 24.0586 27.7266 23.1914V18.1406L23.25 20.2734V23.1914C23.25 24.0586 23.918 24.7383 24.7969 24.7383Z" fill="#1EC089"/>
</svg>
