<svg width="14" height="14" viewBox="0 0 14 14" fill="none" xmlns="http://www.w3.org/2000/svg">
<path d="M10.9664 6.25436C10.9277 5.49752 10.7086 4.76331 10.3377 4.05735C10.2098 3.81402 9.97292 3.64933 9.70341 3.59526C8.79399 3.41282 8.09761 3.32388 6.98689 3.32388C5.87814 3.32388 5.15029 3.41251 4.28012 3.59429C4.02043 3.64854 3.79215 3.80705 3.66686 4.04089C3.29666 4.73181 3.0767 5.47784 3.03509 6.23387C2.67862 6.3107 2.31887 6.39501 1.95263 6.48516C1.58711 6.57514 1.30497 6.86624 1.2053 7.22923C1.2 7.24856 1.19468 7.26791 1.18935 7.28729C1.04345 7.81788 0.892212 8.36791 0.892212 8.93162C0.892212 9.46185 1.02602 9.97997 1.16332 10.4812C1.28348 10.9198 1.67447 11.2398 2.12882 11.2599C2.4321 11.2734 2.73822 11.2879 3.04699 11.3025C4.32369 11.3629 5.64575 11.4255 6.99997 11.4255C8.35418 11.4255 9.67624 11.3629 10.9529 11.3025C11.2617 11.2879 11.5678 11.2734 11.8711 11.2599C12.3255 11.2398 12.7164 10.9198 12.8366 10.4812C12.9739 9.97997 13.1077 9.46185 13.1077 8.93162C13.1077 8.36791 12.9565 7.81788 12.8106 7.2873C12.8065 7.2725 12.8025 7.25772 12.7984 7.24296C12.6967 6.87284 12.4051 6.57872 12.0312 6.49207C11.6792 6.41053 11.3243 6.33017 10.9664 6.25436Z" fill="#33D69F" fill-opacity="0.15" stroke="#1EC089" stroke-width="1.5" stroke-linejoin="round"/>
<path d="M4.17902 12.4773C5.03371 12.4773 5.72657 11.7844 5.72657 10.9298C5.72657 10.0751 5.03371 9.3822 4.17902 9.3822C3.32433 9.3822 2.63147 10.0751 2.63147 10.9298C2.63147 11.7844 3.32433 12.4773 4.17902 12.4773Z" fill="#33D69F" fill-opacity="0.15" stroke="#1EC089" stroke-width="1.5" stroke-linecap="round" stroke-linejoin="round"/>
<path d="M9.82111 12.4773C10.6758 12.4773 11.3687 11.7844 11.3687 10.9298C11.3687 10.0751 10.6758 9.3822 9.82111 9.3822C8.96642 9.3822 8.27356 10.0751 8.27356 10.9298C8.27356 11.7844 8.96642 12.4773 9.82111 12.4773Z" fill="#33D69F" fill-opacity="0.15" stroke="#1EC089" stroke-width="1.5" stroke-linecap="round" stroke-linejoin="round"/>
<path d="M7.00012 1.52271L7.00012 3.32389" stroke="#1EC089" stroke-width="1.5" stroke-linecap="round" stroke-linejoin="round"/>
</svg>
