<svg width="32" height="33" viewBox="0 0 32 33" fill="none" xmlns="http://www.w3.org/2000/svg">
<rect width="32" height="32.0267" rx="8" fill="#F0F0F0"/>
<path d="M21.1936 15.0356C21.1438 14.0448 20.857 13.0828 20.3712 12.1562C20.2864 11.9997 20.1677 11.864 20.0239 11.7593C19.88 11.6545 19.7146 11.5833 19.5396 11.5507C18.3709 11.301 17.178 11.1819 15.983 11.1955C14.5307 11.1955 13.5774 11.3122 12.4381 11.5494C12.2697 11.5824 12.1105 11.652 11.9718 11.7532C11.8331 11.8544 11.7183 11.9848 11.6354 12.1352C11.1508 13.0396 10.8627 14.0186 10.8077 15.0094C10.3402 15.1103 9.87012 15.2204 9.39084 15.3384C8.91155 15.4563 8.54227 15.8377 8.41132 16.3135L8.39036 16.3895C8.19917 17.0854 8.00143 17.8063 8.00143 18.5455C8.00143 19.2401 8.17691 19.919 8.35632 20.5769C8.51346 21.151 9.02548 21.5704 9.62132 21.5966L10.8235 21.6529C12.4957 21.7316 14.2269 21.8141 16 21.8141C17.7731 21.8141 19.5043 21.7316 21.1766 21.6529C21.5812 21.6333 21.9819 21.6136 22.3787 21.5966C22.9732 21.5704 23.4852 21.151 23.6424 20.5756C23.8231 19.9203 23.9986 19.2388 23.9986 18.5441C23.9986 17.8063 23.7995 17.0854 23.6083 16.3895L23.5926 16.3318C23.5288 16.0928 23.4019 15.8754 23.2252 15.7024C23.0484 15.5295 22.8284 15.4073 22.5882 15.3489C22.1243 15.24 21.6594 15.1356 21.1936 15.0356Z" fill="white"/>
<path d="M12.2967 23.1837C13.58 23.1837 14.3016 22.4616 14.3016 21.1772C14.3016 19.8928 13.58 19.1706 12.2967 19.1706C11.0133 19.1706 10.2918 19.8928 10.2918 21.1772C10.2918 22.4616 11.012 23.1837 12.2954 23.1837H12.2967Z" fill="white"/>
<path d="M19.6929 23.1837C20.9762 23.1837 21.699 22.4616 21.699 21.1772C21.699 19.8928 20.9762 19.1706 19.6929 19.1706C18.4095 19.1706 17.6893 19.8928 17.6893 21.1772C17.6893 22.4616 18.4095 23.1837 19.6929 23.1837Z" fill="white"/>
<path d="M16 8.8351V11.1942" stroke="#1EC089" stroke-width="1.5" stroke-linecap="round" stroke-linejoin="round"/>
<path d="M10.3298 21.6293C10.0936 21.6181 9.85748 21.6072 9.62132 21.5966C9.3299 21.5814 9.0507 21.4745 8.82355 21.2912C8.59639 21.1079 8.43288 20.8574 8.35632 20.5756C8.17691 19.9203 8.00275 19.2388 8.00275 18.5441C8.00275 17.8063 8.19918 17.0854 8.39037 16.3895L8.41132 16.3135C8.54227 15.8377 8.91156 15.4563 9.39084 15.3384C9.87013 15.2204 10.3416 15.1103 10.8077 15.0094C10.8703 14.0023 11.1528 13.0212 11.6354 12.1352C11.7183 11.9848 11.8331 11.8544 11.9718 11.7532C12.1105 11.652 12.2697 11.5824 12.4381 11.5494C13.5774 11.3122 14.5307 11.1955 15.983 11.1955C17.4366 11.1955 18.3493 11.3122 19.5397 11.5507C19.8932 11.6215 20.2036 11.839 20.3712 12.1562C20.8557 13.0815 21.1438 14.0435 21.1936 15.0356C21.6624 15.1352 22.1273 15.2414 22.5882 15.3475C23.078 15.4616 23.4604 15.8456 23.5926 16.3318L23.6083 16.3895C23.7995 17.0854 23.9986 17.8063 23.9986 18.5455C23.9986 19.2401 23.8231 19.919 23.6424 20.5769C23.4852 21.151 22.9745 21.5704 22.3787 21.5966L21.6702 21.6293" stroke="#1EC089" stroke-width="1.5" stroke-linecap="round" stroke-linejoin="round"/>
<path d="M14.24 21.7892C15.4096 21.8199 16.5799 21.8199 17.7495 21.7892" stroke="#1EC089" stroke-width="1.5" stroke-linecap="round" stroke-linejoin="round"/>
<path d="M12.2967 23.1837C13.58 23.1837 14.3016 22.4616 14.3016 21.1772C14.3016 19.8928 13.58 19.1706 12.2967 19.1706C11.0133 19.1706 10.2918 19.8928 10.2918 21.1772C10.2918 22.4616 11.012 23.1837 12.2954 23.1837H12.2967Z" stroke="#1EC089" stroke-width="1.5" stroke-linecap="round" stroke-linejoin="round"/>
<path d="M19.6929 23.1837C20.9762 23.1837 21.699 22.4616 21.699 21.1772C21.699 19.8928 20.9762 19.1706 19.6929 19.1706C18.4095 19.1706 17.6893 19.8928 17.6893 21.1772C17.6893 22.4616 18.4095 23.1837 19.6929 23.1837Z" stroke="#1EC089" stroke-width="1.5" stroke-linecap="round" stroke-linejoin="round"/>
</svg>
