<svg width="20" height="10" viewBox="0 0 20 10" fill="none" xmlns="http://www.w3.org/2000/svg">
<rect width="19.1624" height="9.79485" rx="2.44871" fill="#FF7865" fill-opacity="0.06"/>
<path d="M6.72277 2.99372V3.44918H5.27803V4.45315H6.40444V4.90861H5.27803V6.39743H4.71973V2.99372H6.72277ZM8.9102 6.39743L8.12661 5.03595H7.70054V6.39743H7.14223V2.99372H8.31761C8.57881 2.99372 8.79919 3.03943 8.97877 3.13085C9.1616 3.22226 9.2971 3.3447 9.38525 3.49815C9.47667 3.65161 9.52238 3.82302 9.52238 4.01238C9.52238 4.2344 9.45708 4.43683 9.32648 4.61966C9.19915 4.79924 9.00162 4.92167 8.73389 4.98697L9.57625 6.39743H8.9102ZM7.70054 4.59028H8.31761C8.52657 4.59028 8.68329 4.53804 8.78777 4.43356C8.89551 4.32908 8.94938 4.18869 8.94938 4.01238C8.94938 3.83608 8.89714 3.69895 8.79266 3.601C8.68819 3.49979 8.52984 3.44918 8.31761 3.44918H7.70054V4.59028ZM10.697 3.44428V4.44336H11.8723V4.89882H10.697V5.94197H12.0193V6.39743H10.1387V2.98882H12.0193V3.44428H10.697ZM13.1673 3.44428V4.44336H14.3427V4.89882H13.1673V5.94197H14.4896V6.39743H12.609V2.98882H14.4896V3.44428H13.1673Z" fill="url(#paint0_linear_629_172)"/>
<rect x="0.285683" y="0.285683" width="18.591" height="9.22349" rx="2.16303" stroke="url(#paint1_linear_629_172)" stroke-opacity="0.8" stroke-width="0.571366"/>
<defs>
<linearGradient id="paint0_linear_629_172" x1="9.58119" y1="0.39743" x2="9.58119" y2="9.39743" gradientUnits="userSpaceOnUse">
<stop stop-color="#FF7865"/>
<stop offset="0.760417" stop-color="#D65445"/>
</linearGradient>
<linearGradient id="paint1_linear_629_172" x1="9.58119" y1="0" x2="9.58119" y2="9.79485" gradientUnits="userSpaceOnUse">
<stop stop-color="#FF7865"/>
<stop offset="0.760417" stop-color="#D65445"/>
</linearGradient>
</defs>
</svg>
