<svg width="16" height="16" viewBox="0 0 16 16" fill="none" xmlns="http://www.w3.org/2000/svg">
<g id="Date">
<path id="Vector" d="M12.6667 2.53331H11.3333V1.93331C11.3333 1.77418 11.2631 1.62157 11.1381 1.50905C11.013 1.39653 10.8435 1.33331 10.6667 1.33331C10.4899 1.33331 10.3203 1.39653 10.1953 1.50905C10.0702 1.62157 10 1.77418 10 1.93331V2.53331H6V1.93331C6 1.77418 5.92976 1.62157 5.80474 1.50905C5.67972 1.39653 5.51015 1.33331 5.33334 1.33331C5.15652 1.33331 4.98696 1.39653 4.86193 1.50905C4.73691 1.62157 4.66667 1.77418 4.66667 1.93331V2.53331H3.33334C2.8029 2.53331 2.2942 2.72296 1.91912 3.06052C1.54405 3.39809 1.33334 3.85592 1.33334 4.33331V11.5333C1.33334 12.0107 1.54405 12.4685 1.91912 12.8061C2.2942 13.1437 2.8029 13.3333 3.33334 13.3333H12.6667C13.1971 13.3333 13.7058 13.1437 14.0809 12.8061C14.456 12.4685 14.6667 12.0107 14.6667 11.5333V4.33331C14.6667 3.85592 14.456 3.39809 14.0809 3.06052C13.7058 2.72296 13.1971 2.53331 12.6667 2.53331ZM13.3333 11.5333C13.3333 11.6924 13.2631 11.8451 13.1381 11.9576C13.013 12.0701 12.8435 12.1333 12.6667 12.1333H3.33334C3.15652 12.1333 2.98696 12.0701 2.86193 11.9576C2.73691 11.8451 2.66667 11.6924 2.66667 11.5333V7.33331H13.3333V11.5333ZM13.3333 6.13331H2.66667V4.33331C2.66667 4.17418 2.73691 4.02157 2.86193 3.90905C2.98696 3.79653 3.15652 3.73331 3.33334 3.73331H4.66667V4.33331C4.66667 4.49244 4.73691 4.64506 4.86193 4.75758C4.98696 4.8701 5.15652 4.93331 5.33334 4.93331C5.51015 4.93331 5.67972 4.8701 5.80474 4.75758C5.92976 4.64506 6 4.49244 6 4.33331V3.73331H10V4.33331C10 4.49244 10.0702 4.64506 10.1953 4.75758C10.3203 4.8701 10.4899 4.93331 10.6667 4.93331C10.8435 4.93331 11.013 4.8701 11.1381 4.75758C11.2631 4.64506 11.3333 4.49244 11.3333 4.33331V3.73331H12.6667C12.8435 3.73331 13.013 3.79653 13.1381 3.90905C13.2631 4.02157 13.3333 4.17418 13.3333 4.33331V6.13331Z" fill="#FF7865"/>
</g>
</svg>
