<svg width="28" height="28" viewBox="0 0 28 28" fill="none" xmlns="http://www.w3.org/2000/svg">
<path d="M8.45843 4.37616C7.21173 4.37616 6.04966 5.38995 6.20091 6.68535L8.29049 24.5776C8.39313 25.4566 9.06222 26.2505 10.0119 26.2505H17.9374C18.8875 26.2505 19.5474 25.4528 19.6588 24.5808L21.9454 6.69181C22.0284 6.04231 21.7573 5.44191 21.3285 5.03178C20.8998 4.62164 20.3114 4.37616 19.6879 4.37616H8.45843ZM8.45843 5.25139H19.6879C20.0743 5.25139 20.4623 5.41389 20.7246 5.66479C20.9869 5.91568 21.1216 6.22651 21.0766 6.57877L18.79 24.471C18.7207 25.0133 18.4131 25.3753 17.9374 25.3753H10.0119C9.53578 25.3753 9.22197 25.0113 9.15926 24.4742L7.06968 6.58523C6.98669 5.87443 7.68529 5.25139 8.45843 5.25139Z" fill="#1EC089"/>
<path d="M8.67412 7.87516C8.19721 7.86571 7.82181 8.27977 7.87686 8.75359L9.62006 23.6819C9.63015 23.7691 9.64557 23.857 9.68415 23.9596C9.72273 24.0621 9.82684 24.231 9.75337 24.1023C9.89383 24.3486 10.1531 24.5003 10.4344 24.5005H17.5029C17.7858 24.5004 18.0466 24.3466 18.1865 24.098C18.1049 24.2428 18.2059 24.0796 18.248 23.9758C18.2902 23.872 18.3094 23.7743 18.3215 23.6784L20.0135 10.4404C20.0811 9.91024 19.6124 9.46815 19.0872 9.56709C18.7435 9.63198 18.3683 9.67561 17.9746 9.67561C16.8858 9.67561 15.247 9.27103 13.579 8.82452C11.9363 8.3848 10.2455 7.90631 8.67412 7.87516ZM10.0636 14.4361C10.3104 14.4361 10.4994 14.6293 10.4994 14.8762C10.4994 15.123 10.3104 15.312 10.0636 15.312C9.81667 15.312 9.62434 15.123 9.62434 14.8762C9.62434 14.6293 9.81667 14.4361 10.0636 14.4361ZM17.062 17.5012C17.3089 17.5012 17.5012 17.6901 17.5012 17.937C17.5012 18.1839 17.3089 18.3771 17.062 18.3771C16.8151 18.3771 16.6262 18.1839 16.6262 17.937C16.6262 17.6901 16.8151 17.5012 17.062 17.5012ZM11.8144 21.8746C12.0613 21.8746 12.2502 22.0669 12.2502 22.3138C12.2502 22.5607 12.0613 22.7496 11.8144 22.7496C11.5676 22.7496 11.3744 22.5607 11.3744 22.3138C11.3744 22.0669 11.5676 21.8746 11.8144 21.8746Z" fill="#1EC089"/>
<path d="M18.8127 1.74399C18.704 1.74381 18.5992 1.78405 18.5186 1.85688C18.438 1.92971 18.3874 2.02992 18.3767 2.13801L17.5047 10.0151C17.4958 10.0733 17.4989 10.1327 17.5136 10.1897C17.5283 10.2468 17.5543 10.3002 17.5902 10.3469C17.626 10.3936 17.671 10.4326 17.7222 10.4616C17.7735 10.4905 17.8301 10.5088 17.8887 10.5153C17.9472 10.5218 18.0064 10.5165 18.0628 10.4995C18.1192 10.4826 18.1716 10.4545 18.2169 10.4168C18.2622 10.3792 18.2994 10.3328 18.3263 10.2804C18.3531 10.228 18.3692 10.1707 18.3734 10.112L19.2487 2.2349C19.2563 2.17325 19.2506 2.11069 19.2322 2.05138C19.2137 1.99207 19.1828 1.93738 19.1416 1.89093C19.1003 1.84449 19.0497 1.80737 18.9929 1.78203C18.9362 1.75669 18.8748 1.74373 18.8127 1.74399Z" fill="#1EC089"/>
</svg>
