<svg width="32" height="32" viewBox="0 0 32 32" fill="none" xmlns="http://www.w3.org/2000/svg">
<rect width="32" height="32" rx="8" fill="#F0F0F0"/>
<path d="M16 8.20187C11.5806 8.20187 8 11.7855 8 16.2085C8 20.6316 11.5806 24.2152 16 24.2152C20.4194 24.2152 24 20.6316 24 16.2085C24 11.7855 20.4194 8.20187 16 8.20187ZM17.8419 19.5048L14.9968 17.4354C14.8968 17.3611 14.8387 17.2449 14.8387 17.1222V11.6886C14.8387 11.4756 15.0129 11.3012 15.2258 11.3012H16.7742C16.9871 11.3012 17.1613 11.4756 17.1613 11.6886V16.1343L19.2097 17.6258C19.3839 17.7518 19.4194 17.9939 19.2935 18.1682L18.3839 19.4209C18.2581 19.592 18.0161 19.6307 17.8419 19.5048Z" fill="#1EC089" fill-opacity="0.8"/>
</svg>
