<svg width="16" height="14" viewBox="0 0 16 14" fill="none" xmlns="http://www.w3.org/2000/svg">
<g id="edit-icon 1" clip-path="url(#clip0_674_213)">
<path id="Vector" d="M4.22319 0.188968H7.70504L6.04362 1.92529H4.22319C4.01773 1.92544 3.81432 1.96624 3.62469 2.04533C3.43505 2.12443 3.26294 2.24026 3.11826 2.38615C2.97237 2.53083 2.85654 2.70294 2.77744 2.89258C2.69835 3.08221 2.65755 3.28562 2.6574 3.49108V12.2637H11.43C11.6355 12.2637 11.8389 12.2229 12.0286 12.1438C12.2182 12.0647 12.3903 11.9488 12.5349 11.8028C12.6809 11.6582 12.7968 11.4861 12.8759 11.2965C12.955 11.1068 12.9958 10.9034 12.9958 10.6979V8.90628L14.7321 7.09276V10.6979C14.7316 11.1308 14.6457 11.5594 14.4794 11.9592C14.3132 12.3589 14.0698 12.722 13.7631 13.0276V13.0333C13.1462 13.6514 12.309 13.9992 11.4358 14H2.24607C1.89583 13.9994 1.56016 13.8597 1.31282 13.6117C1.18911 13.4888 1.09084 13.3427 1.02362 13.1818C0.956405 13.0209 0.921561 12.8483 0.921082 12.6739L0.921082 3.49108C0.92166 3.05832 1.00754 2.62992 1.1738 2.23037C1.34006 1.83082 1.58345 1.46797 1.89005 1.16255L1.89582 1.15218C2.20119 0.845926 2.5639 0.602826 2.96324 0.436766C3.36257 0.270706 3.79071 0.184937 4.22319 0.184359V0.188968ZM9.3319 8.81065L5.94223 9.50195L6.4319 5.89451L9.3319 8.81065ZM7.50341 4.80225L12.0165 0.104859C12.0649 0.0517332 12.13 0.0167241 12.201 0.00562051C12.272 -0.0054831 12.3447 0.00798374 12.407 0.0437944L14.9971 2.55091C15.0248 2.57826 15.0464 2.61117 15.0604 2.64747C15.0745 2.68376 15.0807 2.72263 15.0786 2.7615C15.0765 2.80036 15.0663 2.83835 15.0484 2.87295C15.0306 2.90755 15.0057 2.93798 14.9752 2.96224L10.4011 7.71954L7.50341 4.80225Z" fill="url(#paint0_linear_674_213)"/>
</g>
<defs>
<linearGradient id="paint0_linear_674_213" x1="8.00004" y1="0.00183105" x2="8.00004" y2="14" gradientUnits="userSpaceOnUse">
<stop stop-color="#FF7865"/>
<stop offset="1" stop-color="#D65445"/>
</linearGradient>
<clipPath id="clip0_674_213">
<rect width="14.1578" height="14" fill="white" transform="translate(0.921082)"/>
</clipPath>
</defs>
</svg>
