<svg width="27" height="10" viewBox="0 0 27 10" fill="none" xmlns="http://www.w3.org/2000/svg">
<rect x="0.837006" y="0.1026" width="26.1624" height="9.79485" rx="2.44871" fill="#FF7865" fill-opacity="0.06"/>
<path d="M5.24257 3.43914V2.92981H6.26124V6.50003H5.69804V3.43914H5.24257ZM6.93027 4.66839C6.93027 4.10356 7.02496 3.66279 7.21432 3.34609C7.40696 3.02612 7.73672 2.86614 8.2036 2.86614C8.67049 2.86614 8.99862 3.02612 9.18799 3.34609C9.38062 3.66279 9.47694 4.10356 9.47694 4.66839C9.47694 5.23976 9.38062 5.68706 9.18799 6.01029C8.99862 6.33025 8.67049 6.49024 8.2036 6.49024C7.73672 6.49024 7.40696 6.33025 7.21432 6.01029C7.02496 5.68706 6.93027 5.23976 6.93027 4.66839ZM8.92842 4.66839C8.92842 4.40393 8.91047 4.18028 8.87455 3.99745C8.8419 3.81461 8.77334 3.66605 8.66886 3.55178C8.56438 3.43424 8.4093 3.37547 8.2036 3.37547C7.99791 3.37547 7.84283 3.43424 7.73835 3.55178C7.63387 3.66605 7.56367 3.81461 7.52776 3.99745C7.49511 4.18028 7.47879 4.40393 7.47879 4.66839C7.47879 4.94265 7.49511 5.17283 7.52776 5.35893C7.56041 5.54503 7.62897 5.69522 7.73345 5.80949C7.8412 5.92377 7.99791 5.9809 8.2036 5.9809C8.4093 5.9809 8.56438 5.92377 8.66886 5.80949C8.7766 5.69522 8.8468 5.54503 8.87945 5.35893C8.9121 5.17283 8.92842 4.94265 8.92842 4.66839ZM12.3292 3.09632C12.6916 3.09632 13.0083 3.16651 13.2793 3.30691C13.5535 3.44404 13.7641 3.6432 13.911 3.90439C14.0612 4.16233 14.1363 4.46433 14.1363 4.81042C14.1363 5.1565 14.0612 5.45688 13.911 5.71154C13.7641 5.96621 13.5535 6.16211 13.2793 6.29924C13.0083 6.4331 12.6916 6.50003 12.3292 6.50003H11.2174V3.09632H12.3292ZM12.3292 6.04457C12.7275 6.04457 13.0327 5.93683 13.245 5.72134C13.4572 5.50585 13.5633 5.20221 13.5633 4.81042C13.5633 4.41536 13.4572 4.10682 13.245 3.8848C13.0327 3.66279 12.7275 3.55178 12.3292 3.55178H11.7757V6.04457H12.3292ZM14.4056 5.13855C14.4056 4.86755 14.4611 4.62758 14.5721 4.41862C14.6864 4.20967 14.8398 4.04805 15.0325 3.93378C15.2284 3.81624 15.4438 3.75747 15.6789 3.75747C15.8911 3.75747 16.0756 3.79992 16.2323 3.8848C16.3923 3.96643 16.5196 4.06927 16.6143 4.19334V3.80155H17.1775V6.50003H16.6143V6.09844C16.5196 6.22577 16.3907 6.33189 16.2274 6.41677C16.0642 6.50166 15.8781 6.54411 15.6691 6.54411C15.4373 6.54411 15.2251 6.48534 15.0325 6.3678C14.8398 6.247 14.6864 6.08048 14.5721 5.86826C14.4611 5.65278 14.4056 5.40954 14.4056 5.13855ZM16.6143 5.14834C16.6143 4.96224 16.5751 4.80062 16.4968 4.6635C16.4217 4.52637 16.3221 4.42189 16.198 4.35006C16.074 4.27823 15.9401 4.24232 15.7965 4.24232C15.6528 4.24232 15.5189 4.27823 15.3949 4.35006C15.2708 4.41862 15.1696 4.52147 15.0912 4.6586C15.0161 4.79246 14.9786 4.95244 14.9786 5.13855C14.9786 5.32465 15.0161 5.4879 15.0912 5.62829C15.1696 5.76868 15.2708 5.87642 15.3949 5.95152C15.5222 6.02335 15.6561 6.05926 15.7965 6.05926C15.9401 6.05926 16.074 6.02335 16.198 5.95152C16.3221 5.87969 16.4217 5.77521 16.4968 5.63808C16.5751 5.49769 16.6143 5.33444 16.6143 5.14834ZM20.242 3.80155L18.5867 7.76846H18.0088L18.5573 6.45595L17.4946 3.80155H18.1165L18.8756 5.85847L19.6641 3.80155H20.242ZM21.5449 6.54411C21.3327 6.54411 21.1417 6.50656 20.9719 6.43147C20.8054 6.35311 20.6731 6.24863 20.5752 6.11803C20.4772 5.98417 20.425 5.83561 20.4185 5.67237H20.9964C21.0062 5.78664 21.06 5.88295 21.158 5.96131C21.2592 6.03641 21.3849 6.07395 21.5351 6.07395C21.6918 6.07395 21.8126 6.04457 21.8975 5.9858C21.9857 5.92377 22.0297 5.84541 22.0297 5.75072C22.0297 5.64951 21.9808 5.57442 21.8828 5.52544C21.7881 5.47647 21.6363 5.4226 21.4273 5.36383C21.2249 5.30832 21.06 5.25445 20.9327 5.20221C20.8054 5.14997 20.6944 5.06998 20.5997 4.96224C20.5083 4.85449 20.4626 4.71247 20.4626 4.53616C20.4626 4.3925 20.505 4.26191 20.5899 4.14437C20.6748 4.02356 20.7956 3.92888 20.9523 3.86032C21.1123 3.79175 21.2951 3.75747 21.5008 3.75747C21.8077 3.75747 22.0542 3.83583 22.2403 3.99255C22.4297 4.146 22.5309 4.35659 22.544 4.62432H21.9857C21.9759 4.50351 21.9269 4.4072 21.8387 4.33537C21.7506 4.26354 21.6314 4.22762 21.4812 4.22762C21.3343 4.22762 21.2217 4.25538 21.1433 4.31088C21.0649 4.36638 21.0258 4.43985 21.0258 4.53126C21.0258 4.60309 21.0519 4.6635 21.1041 4.71247C21.1564 4.76144 21.22 4.80062 21.2951 4.83001C21.3702 4.85613 21.4812 4.89041 21.6281 4.93285C21.824 4.98509 21.984 5.03896 22.1081 5.09447C22.2354 5.14671 22.3448 5.22507 22.4362 5.32955C22.5276 5.43402 22.575 5.57278 22.5782 5.74583C22.5782 5.89928 22.5358 6.03641 22.4509 6.15721C22.366 6.27801 22.2452 6.3727 22.0885 6.44126C21.935 6.50983 21.7538 6.54411 21.5449 6.54411Z" fill="url(#paint0_linear_362_177)"/>
<rect x="1.12269" y="0.388283" width="25.591" height="9.22349" rx="2.16303" stroke="url(#paint1_linear_362_177)" stroke-opacity="0.8" stroke-width="0.571366"/>
<defs>
<linearGradient id="paint0_linear_362_177" x1="13.9182" y1="0.500031" x2="13.9182" y2="9.50003" gradientUnits="userSpaceOnUse">
<stop stop-color="#FF7865"/>
<stop offset="0.760417" stop-color="#D65445"/>
</linearGradient>
<linearGradient id="paint1_linear_362_177" x1="13.9182" y1="0.1026" x2="13.9182" y2="9.89745" gradientUnits="userSpaceOnUse">
<stop stop-color="#FF7865"/>
<stop offset="0.760417" stop-color="#D65445"/>
</linearGradient>
</defs>
</svg>
