<svg width="30" height="28" viewBox="0 0 30 28" fill="none" xmlns="http://www.w3.org/2000/svg">
<g clip-path="url(#clip0_352_260)">
<path d="M7.05522 24.4153L12.1079 18.2884L14.4192 21.2364L9.96434 26.9016C8.25824 29.0694 5.10123 26.7849 7.05522 24.4153ZM12.9561 10.4627C13.4373 8.89271 13.2161 7.55116 11.408 5.55828L6.9896 0.243113C6.36257 -0.493282 4.88493 0.588222 5.50223 1.48016L9.03595 5.83291C9.70429 6.64464 8.46239 7.71885 7.77217 6.88281L4.11694 2.38182C3.43644 1.60168 2.02927 2.63214 2.74136 3.52408C3.77183 4.76355 5.36613 6.78803 6.3966 8.02751C7.11112 8.75418 6.02476 9.83082 5.31996 8.9243L1.69146 4.45247C1.15921 3.87405 0.289149 4.23374 0.058267 4.90937C-0.189628 5.63119 0.420388 6.15857 0.835976 6.69325L4.88493 11.9233C6.14141 13.3791 7.54615 14.2419 9.17934 13.7534C9.42966 13.6781 9.73589 13.5249 10.064 13.3232L20.9422 27.3658C21.5279 28.1216 22.658 28.2018 23.392 27.5918L23.5597 27.4533C24.386 26.7655 24.5197 25.509 23.8124 24.6972L12.2926 11.4616C12.628 11.0873 12.8735 10.7325 12.9561 10.4627ZM16.0353 13.5249L17.8265 11.3522C15.5225 5.64091 24.0603 -1.97093 28.1992 1.52877C33.2276 5.7843 25.7543 16.0404 20.5023 13.5055L18.3806 16.2008L16.0353 13.5249Z" fill="#1EC089"/>
</g>
<defs>
<clipPath id="clip0_352_260">
<rect width="29.864" height="28" fill="white"/>
</clipPath>
</defs>
</svg>
