<svg width="32" height="33" viewBox="0 0 32 33" fill="none" xmlns="http://www.w3.org/2000/svg">
<rect width="32" height="32.0267" rx="8" fill="#F0F0F0"/>
<path d="M8.81726 11.5967C7.9151 13.8521 7.92272 20.0879 8.08181 23.142C8.11668 23.8113 8.67536 24.3169 9.34562 24.3169H17.4213C18.0915 24.3169 18.6502 23.8113 18.6851 23.142C18.8442 20.0879 18.8518 13.8521 17.9496 11.5967C17.4177 10.8874 16.1048 9.42619 14.5064 8.34509C13.8261 7.88497 12.9407 7.88497 12.2604 8.34509C10.662 9.42619 9.34922 10.8874 8.81726 11.5967Z" fill="white" stroke="#1EC089" stroke-width="1.5" stroke-linecap="round" stroke-linejoin="round"/>
<path d="M18.6005 15.1845H21.547C22.585 15.1845 23.4781 15.6909 23.6709 16.7108C23.9667 18.2756 24.1592 20.9299 23.8205 24.3169H17.4213C18.0915 24.3169 18.6502 23.8114 18.6851 23.142C18.7877 21.1724 18.8273 17.8796 18.6005 15.1845Z" fill="#33D69F" fill-opacity="0.15" stroke="#1EC089" stroke-width="1.5" stroke-linecap="round" stroke-linejoin="round"/>
<path d="M12.7311 17.4676H14.0358" stroke="#1EC089" stroke-width="1.5" stroke-linecap="round" stroke-linejoin="round"/>
<path d="M13.3834 24.3204V21.3814" stroke="#1EC089" stroke-width="1.5" stroke-linecap="round" stroke-linejoin="round"/>
<path d="M12.7311 13.5537H14.0358" stroke="#1EC089" stroke-width="1.5" stroke-linecap="round" stroke-linejoin="round"/>
</svg>
