<svg width="16" height="16" viewBox="0 0 16 16" fill="none" xmlns="http://www.w3.org/2000/svg">
<path d="M10.7395 8.00993C12.2536 8.00993 13.481 6.78249 13.481 5.26836C13.481 3.75423 12.2536 2.52678 10.7395 2.52678C9.22533 2.52678 7.99789 3.75423 7.99789 5.26836C7.99789 6.78249 9.22533 8.00993 10.7395 8.00993Z" fill="white"/>
<path d="M10.7394 8.01005C12.2536 8.01005 13.481 6.78261 13.481 5.26848C13.481 4.09721 12.7465 3.09749 11.713 2.7048" stroke="#1EC089" stroke-width="1.71429" stroke-linecap="round" stroke-linejoin="round"/>
<path d="M14.4842 11.8613C15.8252 12.7544 14.9197 14.4771 13.3084 14.4771H7.25766C5.6464 14.4771 4.74086 12.7544 6.08191 11.8613C7.28479 11.0601 8.72938 10.5932 10.283 10.5932C11.8367 10.5932 13.2813 11.0601 14.4842 11.8613Z" fill="white"/>
<path d="M6.12629 7.46655C7.76759 7.46655 9.09812 6.13601 9.09812 4.49471C9.09812 2.85341 7.76759 1.52288 6.12629 1.52288C4.48499 1.52288 3.15445 2.85341 3.15445 4.49471C3.15445 6.13601 4.48499 7.46655 6.12629 7.46655Z" fill="white" stroke="#1EC089" stroke-width="1.71429" stroke-linecap="round" stroke-linejoin="round"/>
<path d="M10.6783 11.6419C12.132 12.61 11.1504 14.4774 9.40381 14.4774H2.84487C1.09829 14.4774 0.116695 12.61 1.57037 11.6419C2.87428 10.7734 4.44021 10.2673 6.12434 10.2673C7.80848 10.2673 9.37441 10.7734 10.6783 11.6419Z" fill="white" stroke="#1EC089" stroke-width="1.71429"/>
<path d="M9.15118 14.4773H13.3084C14.9196 14.4773 15.8252 12.7546 14.4841 11.8614C14.1138 11.6148 13.7206 11.3998 13.3084 11.2204" stroke="#1EC089" stroke-width="1.71429" stroke-linecap="round"/>
</svg>
