<svg width="37" height="28" viewBox="0 0 37 28" fill="none" xmlns="http://www.w3.org/2000/svg">
<g clip-path="url(#clip0_352_246)">
<path fill-rule="evenodd" clip-rule="evenodd" d="M4.77832 17.1361C5.1281 13.0366 5.84247 9.66335 8.77705 8.32649C10.1139 12.3667 9.51217 16.2676 8.21978 20.542C4.13508 21.1141 0.43574 22.4302 0.43574 25.0417C2.40694 25.5782 3.80902 24.8313 4.98581 23.275C7.61804 25.5604 9.29579 26.257 11.9428 23.1416C13.671 26.1563 17.0917 25.4508 18.9028 23.2365C20.9037 25.8332 24.3599 26.0347 25.8154 22.8097C27.92 26.0495 31.1954 25.5723 32.7427 23.0083C33.7269 24.2384 34.2397 25.0358 35.9026 25.1632C34.8088 21.624 30.8901 19.967 25.8539 19.7773C25.0891 17.2014 24.7483 14.8418 25.5575 12.3993C27.3686 13.2234 27.8073 15.3043 28.0237 17.8357L28.0208 17.8387C28.7322 16.0838 29.1709 14.4832 28.1719 12.672C29.1234 12.7728 30.0216 13.339 30.9731 14.2105C30.1876 12.5268 28.913 11.2462 26.6365 11.5338C27.9051 10.683 29.408 10.8283 30.8575 11.1662C29.3487 9.57442 27.7065 8.90747 25.7383 10.7127C25.6701 9.61592 26.1237 8.66441 26.7254 7.75143C25.4508 8.25831 24.4993 8.81262 24.7957 11.1217C22.617 9.28097 20.1804 10.0606 19.3267 13.2827C20.9244 11.8687 22.6259 11.1514 24.44 11.7116C21.2683 12.9003 20.4175 14.7322 21.7544 17.2251C22.7059 14.8181 23.7019 13.3034 24.8164 12.6009C24.2088 14.1334 23.6841 15.8319 24.2918 19.7595C22.3354 19.801 20.2456 20.0381 18.1143 20.4531C16.7923 20.1952 13.8963 20.0589 10.8224 20.2723C11.8094 13.8992 10.9617 11.1484 9.97459 8.66144C11.7857 9.7997 13.3983 12.2541 14.9397 16.155C17.1065 12.1177 15.7281 9.14758 10.5852 7.22083C13.5257 6.30786 16.2824 7.47576 18.8761 9.76413C17.4918 4.53822 13.5405 3.27842 10.0102 6.26043C10.4904 2.51959 8.94897 1.62143 6.88291 0.797375C7.85518 2.27948 8.5903 3.82088 8.48063 5.59644C5.29409 2.67076 2.63223 3.7527 0.183781 6.33157C2.53441 5.78319 4.97099 5.54902 7.0252 6.92738C3.33771 6.46199 1.27461 8.53991 0 11.267C1.54139 9.85306 2.99682 8.93712 4.53822 8.77112C2.91975 11.7057 3.63413 14.2964 4.78425 17.1421L4.77832 17.1361ZM19.4186 6.36121C19.3563 6.46792 19.2229 6.50349 19.1162 6.44421C19.0095 6.38196 18.974 6.24857 19.0332 6.14186L19.3178 5.64683C19.3801 5.54012 19.5134 5.50455 19.6202 5.56384C19.7269 5.62609 19.7624 5.75948 19.7032 5.86619L19.4186 6.36121ZM20.8859 1.47914C21.4343 1.47914 21.9322 1.70146 22.2909 2.06013C22.6496 2.4188 22.8719 2.91679 22.8719 3.46517C22.8719 4.01355 22.6496 4.51154 22.2909 4.87021C21.9322 5.22888 21.4343 5.4512 20.8859 5.4512C20.3375 5.4512 19.8395 5.22888 19.4808 4.87021C19.1222 4.51154 18.8999 4.01355 18.8999 3.46517C18.8999 2.91679 19.1222 2.4188 19.4808 2.06013C19.8425 1.70146 20.3375 1.47914 20.8859 1.47914ZM23.607 1.69257C23.7137 1.63032 23.8501 1.66589 23.9123 1.7726C23.9716 1.87931 23.9361 2.01567 23.8293 2.07495L23.3343 2.35952C23.2276 2.42177 23.0913 2.3862 23.032 2.27948C22.9697 2.17277 23.0053 2.03642 23.112 1.97713L23.607 1.69257ZM24.1317 3.29028C24.2532 3.29028 24.354 3.39107 24.354 3.5126C24.354 3.63413 24.2532 3.73491 24.1317 3.73491H23.5626C23.441 3.73491 23.3403 3.63413 23.3403 3.5126C23.3403 3.39107 23.441 3.29028 23.5626 3.29028H24.1317ZM19.1133 0.746983C19.051 0.640271 19.0866 0.503917 19.1933 0.444633C19.3 0.382384 19.4364 0.417955 19.4957 0.524667L19.7802 1.01969C19.8425 1.1264 19.8069 1.26276 19.7002 1.32204C19.5935 1.38429 19.4571 1.34872 19.3978 1.24201L19.1133 0.746983ZM20.711 0.222316C20.711 0.100783 20.8088 0 20.9333 0C21.0548 0 21.1556 0.100783 21.1556 0.222316V0.791446C21.1556 0.912979 21.0548 1.01376 20.9333 1.01376C20.8118 1.01376 20.711 0.912979 20.711 0.791446V0.222316ZM22.3561 0.56913C22.4184 0.462418 22.5518 0.426847 22.6585 0.486132C22.7652 0.54838 22.8008 0.68177 22.7415 0.788482L22.4569 1.28351C22.3947 1.39022 22.2613 1.42579 22.1546 1.3665C22.0478 1.30426 22.0123 1.17087 22.0716 1.06415L22.3561 0.56913ZM23.7849 4.93542C23.8916 4.99767 23.9272 5.13106 23.8679 5.23777C23.8056 5.34448 23.6722 5.38006 23.5655 5.32077L23.0705 5.03621C22.9638 4.97396 22.9282 4.84057 22.9875 4.73386C23.0498 4.62714 23.1831 4.59157 23.2899 4.65086L23.7849 4.93542ZM18.1677 5.24074C18.061 5.30299 17.9246 5.26741 17.8653 5.1607C17.8031 5.05399 17.8387 4.91764 17.9454 4.85835L18.4404 4.57379C18.5471 4.51154 18.6835 4.54711 18.7427 4.65382C18.805 4.76053 18.7694 4.89689 18.6627 4.95617L18.1677 5.24074ZM17.643 3.64302C17.5215 3.64302 17.4207 3.54224 17.4207 3.42071C17.4207 3.29917 17.5215 3.19839 17.643 3.19839H18.2122C18.3337 3.19839 18.4345 3.29917 18.4345 3.42071C18.4345 3.54224 18.3337 3.64302 18.2122 3.64302H17.643ZM17.9898 1.99788C17.8831 1.93563 17.8476 1.80224 17.9068 1.69553C17.9691 1.58882 18.1025 1.55325 18.2092 1.61253L18.7042 1.8971C18.8109 1.95935 18.8465 2.09274 18.7872 2.19945C18.725 2.30616 18.5916 2.34173 18.4849 2.28245L17.9898 1.99788ZM22.6614 6.18632C22.7237 6.29303 22.6881 6.42939 22.5814 6.48867C22.4747 6.55092 22.3383 6.51535 22.2791 6.40864L21.9945 5.91361C21.9322 5.8069 21.9678 5.67055 22.0745 5.61126C22.1812 5.54902 22.3176 5.58459 22.3769 5.6913L22.6614 6.18632ZM21.0637 6.70802C21.0637 6.82956 20.9629 6.93034 20.8414 6.93034C20.7199 6.93034 20.6191 6.82956 20.6191 6.70802V6.13889C20.6191 6.01736 20.7199 5.91658 20.8414 5.91658C20.9629 5.91658 21.0637 6.01736 21.0637 6.13889V6.70802ZM0.275672 26.5624C0.720305 26.6631 1.18569 26.7076 1.64811 26.6957C2.29134 26.678 2.92568 26.5535 3.47703 26.3252C4.12323 26.0584 4.71903 25.6286 4.97099 24.9617C5.2022 25.6019 5.83654 26.0703 6.45607 26.3252C7.00741 26.5535 7.64472 26.6809 8.28499 26.6957C8.92822 26.7135 9.58035 26.6216 10.1643 26.4141C11.101 26.0851 11.2996 25.6553 11.9162 24.9291C12.2719 25.6909 12.8943 26.1414 13.668 26.4141C14.252 26.6187 14.9041 26.7106 15.5473 26.6957C16.1906 26.678 16.8249 26.5535 17.3762 26.3252C17.9958 26.0703 18.6301 25.599 18.8613 24.9617C19.1133 25.6286 19.715 26.0584 20.3553 26.3252C20.9066 26.5535 21.5439 26.6809 22.1842 26.6957C22.8274 26.7135 23.4796 26.6216 24.0635 26.4141C24.9972 26.0851 25.1988 25.6523 25.8154 24.9291C26.4319 25.6494 26.6365 26.0851 27.5702 26.4141C28.1541 26.6187 28.8063 26.7106 29.4495 26.6957C30.0927 26.678 30.7271 26.5535 31.2784 26.3252C31.9217 26.0584 32.5204 25.6316 32.7724 24.9617C33.0036 25.599 33.6379 26.0673 34.2575 26.3252C34.8088 26.5535 35.4461 26.6809 36.0864 26.6957C36.199 26.6987 36.3117 26.6987 36.4213 26.6957V28C35.4965 28.0237 34.5598 27.8666 33.7476 27.5317C33.3267 27.3568 32.9977 27.1878 32.7012 26.9744C32.3011 27.2471 31.9039 27.4813 31.7823 27.5317C30.3654 28.1186 28.5662 28.1571 27.1226 27.6473C26.6454 27.4783 26.2037 27.253 25.8154 26.9625C25.4271 27.253 24.9824 27.4783 24.5082 27.6473C23.0616 28.1571 21.2623 28.1156 19.8454 27.5317C19.7239 27.4813 19.3297 27.2441 18.9265 26.9744C18.6301 27.1878 18.3011 27.3597 17.8802 27.5317C16.4633 28.1186 14.664 28.1571 13.2174 27.6473C12.7965 27.499 12.3845 27.3123 12.0199 27.0722C11.5338 27.3093 10.9735 27.5168 10.606 27.6473C9.1624 28.1571 7.36015 28.1156 5.94622 27.5317C5.5253 27.3568 5.19627 27.1878 4.89985 26.9744C4.49968 27.2471 4.10248 27.4813 3.98094 27.5317C2.86343 27.9941 1.50582 28.1156 0.272708 27.8963V26.5624H0.275672Z" fill="#1EC089"/>
</g>
<defs>
<clipPath id="clip0_352_246">
<rect width="36.4243" height="28" fill="white"/>
</clipPath>
</defs>
</svg>
