<svg width="36" height="28" viewBox="0 0 36 28" fill="none" xmlns="http://www.w3.org/2000/svg">
<path d="M11.801 3.73357C11.801 5.79566 10.1294 7.46725 8.06739 7.46725C6.0053 7.46725 4.33372 5.79566 4.33372 3.73357C4.33372 1.67159 6.0053 0 8.06739 0C10.1294 0 11.801 1.67159 11.801 3.73357Z" fill="#1EC089"/>
<path fill-rule="evenodd" clip-rule="evenodd" d="M3.69624 15.9947C3.11068 16.9309 1.87674 17.216 0.940268 16.6307C0.00359408 16.0453 -0.281144 14.8114 0.304272 13.8747L0.307972 13.8688L0.315072 13.8575L0.339192 13.8194C0.359572 13.7874 0.388462 13.7423 0.425011 13.6859C0.498021 13.5734 0.6021 13.4152 0.730439 13.2265C0.985158 12.852 1.34447 12.3438 1.75241 11.8277C2.15101 11.3234 2.64113 10.7538 3.15918 10.2918C3.41813 10.0609 3.7305 9.81474 4.08282 9.61714C4.41512 9.43074 4.93471 9.20114 5.56911 9.20114H10.5656C11.2001 9.20114 11.7197 9.43074 12.052 9.61714C12.4043 9.81474 12.7167 10.0609 12.9756 10.2918C13.4937 10.7538 13.9838 11.3234 14.3824 11.8277C14.7904 12.3438 15.1496 12.852 15.4043 13.2265C15.5326 13.4152 15.6367 13.5734 15.7097 13.6859C15.7463 13.7423 15.7751 13.7874 15.7955 13.8194L15.8197 13.8575L15.8268 13.8688L15.8299 13.8738C15.8299 13.8738 15.7955 13.8194 15.8305 13.8747C16.4159 14.8114 16.1311 16.0453 15.1945 16.6307C14.258 17.216 13.0243 16.9315 12.4388 15.9951L12.4359 15.9905L12.4205 15.9661C12.4061 15.9435 12.3836 15.9084 12.3539 15.8626C12.3298 15.8254 12.301 15.7813 12.2679 15.7312V18.2151L12.9912 25.8102C13.0942 26.8916 12.3152 27.8575 11.2365 27.9858C10.1579 28.1141 9.17399 27.358 9.02029 26.2826L8.00019 19.142L6.9801 26.2826C6.8265 27.358 5.84261 28.1141 4.76391 27.9858C3.68528 27.8575 2.90628 26.8916 3.00927 25.8102L3.84834 16.9999H3.8672V15.7308C3.834 15.781 3.80507 15.8253 3.78086 15.8626C3.75119 15.9084 3.72874 15.9435 3.71433 15.9661L3.6989 15.9905L3.69624 15.9947Z" fill="#1EC089"/>
<path d="M31.8001 3.73328C31.8001 5.79516 30.1287 7.46665 28.0668 7.46665C26.005 7.46665 24.3335 5.79516 24.3335 3.73328C24.3335 1.67149 26.005 0 28.0668 0C30.1287 0 31.8001 1.67149 31.8001 3.73328Z" fill="#1EC089"/>
<path fill-rule="evenodd" clip-rule="evenodd" d="M23.7014 15.7848C23.1205 16.7241 21.888 17.0152 20.9486 16.4345C20.009 15.8537 19.7182 14.6212 20.2989 13.6817L20.3026 13.6758L20.3096 13.6645L20.3335 13.6264C20.3536 13.5944 20.3822 13.5492 20.4183 13.4929C20.4905 13.3804 20.5934 13.2223 20.7203 13.0336C20.9722 12.6592 21.3276 12.1509 21.7311 11.6348C22.1252 11.1306 22.6102 10.5606 23.1234 10.0979C23.3798 9.86673 23.6899 9.61943 24.0406 9.42064C24.3708 9.23334 24.8915 8.99994 25.5296 8.99994H30.4707C31.1088 8.99994 31.6295 9.23334 31.9596 9.42064C32.3103 9.61943 32.6205 9.86673 32.8769 10.0979C33.39 10.5606 33.875 11.1306 34.2692 11.6348C34.6726 12.1509 35.028 12.6592 35.2799 13.0336C35.4068 13.2223 35.5097 13.3804 35.5819 13.4929C35.618 13.5492 35.6466 13.5944 35.6668 13.6264L35.6906 13.6645C35.7091 13.6942 35.7013 13.6817 35.7013 13.6817C36.2821 14.6212 35.9912 15.8537 35.0516 16.4345C34.1123 17.0151 32.8803 16.7245 32.2993 15.7856L32.2962 15.7806L32.2809 15.7562C32.2667 15.7336 32.2445 15.6985 32.2151 15.6527C32.1563 15.5611 32.0694 15.4275 31.9609 15.2662C31.9159 15.1993 31.8675 15.1282 31.8163 15.0538C32.2837 17.3843 33.2057 20.5794 33.6885 22.1959C33.8546 22.7521 33.5185 23.3371 32.9504 23.4556C29.4129 24.1929 26.9369 24.1737 23.0963 23.4423C22.5111 23.3308 22.1599 22.7303 22.3365 22.1615C22.8406 20.5382 23.7801 17.376 24.225 14.9943C24.1584 15.0904 24.0962 15.1816 24.0393 15.2662C23.9308 15.4275 23.8439 15.5611 23.7851 15.6527C23.7557 15.6985 23.7335 15.7336 23.7193 15.7562L23.704 15.7806L23.7014 15.7848ZM23.6001 25.1514V26.4998C23.6001 27.252 24.1572 27.8879 24.9029 27.9867C25.6486 28.0856 26.3522 27.6169 26.5483 26.8907L26.9436 25.4262C25.8615 25.3896 24.7625 25.2984 23.6001 25.1514ZM29.2553 25.4212L29.652 26.8906C29.848 27.6168 30.5516 28.0855 31.2973 27.9866C32.0429 27.8877 32.6 27.2518 32.6 26.4996V25.1375C31.4373 25.2853 30.3379 25.3802 29.2553 25.4212Z" fill="#1EC089"/>
</svg>
