<svg width="32" height="33" viewBox="0 0 32 33" fill="none" xmlns="http://www.w3.org/2000/svg">
<g id="Location">
<rect id="Rectangle 17" width="32" height="32.0267" rx="8" fill="#F0F0F0"/>
<path id="Vector" fill-rule="evenodd" clip-rule="evenodd" d="M18.9204 21.8568C18.1926 22.6556 17.3449 23.3711 16.3931 23.9497C16.2759 24.0357 16.1171 24.0461 15.9869 23.9627C14.5806 23.0674 13.3996 21.9923 12.4713 20.8234C11.19 19.2153 10.384 17.4326 10.108 15.715C9.82676 13.974 10.0898 12.2981 10.9557 10.9363C11.2968 10.3981 11.733 9.90815 12.2642 9.48462C13.4856 8.51116 14.8801 7.99641 16.2707 8.00684C17.6092 8.01726 18.9309 8.51637 20.0728 9.5602C20.4738 9.92509 20.811 10.3434 21.0871 10.7969C22.0181 12.332 22.2186 14.2894 21.8097 16.2728C21.4061 18.2327 20.4035 20.2239 18.9204 21.8529V21.8568ZM16.0051 11.1031C17.6561 11.1031 18.9934 12.4428 18.9934 14.0939C18.9934 15.7463 17.6548 17.0846 16.0051 17.0846C14.3541 17.0846 13.0168 15.7463 13.0168 14.0939C13.0155 12.4415 14.3541 11.1031 16.0051 11.1031Z" fill="#1EC089" fill-opacity="0.8"/>
</g>
</svg>
