<svg width="16" height="16" viewBox="0 0 16 16" fill="none" xmlns="http://www.w3.org/2000/svg">
<g id="Frame" clip-path="url(#clip0_330_467)">
<path id="Vector" d="M7.99964 0.999817C6.54148 1.00155 5.14353 1.58157 4.11246 2.61264C3.08138 3.64372 2.50137 5.04166 2.49964 6.49982C2.49964 11.2059 7.49964 14.7606 7.71253 14.9095C7.79672 14.9683 7.89694 14.9998 7.99964 14.9998C8.10233 14.9998 8.20255 14.9683 8.28675 14.9095C8.49964 14.7606 13.4996 11.2059 13.4996 6.49982C13.4979 5.04166 12.9179 3.64372 11.8868 2.61264C10.8557 1.58157 9.4578 1.00155 7.99964 0.999817ZM8 4.5C8.39556 4.5 8.78224 4.6173 9.11114 4.83706C9.44004 5.05682 9.69639 5.36918 9.84776 5.73463C9.99914 6.10008 10.0387 6.50222 9.96157 6.89018C9.8844 7.27814 9.69392 7.63451 9.41422 7.91421C9.13451 8.19392 8.77814 8.3844 8.39018 8.46157C8.00222 8.53874 7.60009 8.49913 7.23463 8.34776C6.86918 8.19638 6.55683 7.94004 6.33706 7.61114C6.1173 7.28224 6 6.89556 6 6.5C5.99999 6.23735 6.05172 5.97728 6.15223 5.73462C6.25273 5.49197 6.40005 5.27149 6.58577 5.08577C6.77149 4.90005 6.99197 4.75273 7.23463 4.65222C7.47728 4.55172 7.73736 4.49999 8 4.5Z" fill="#1EC089"/>
</g>
<defs>
<clipPath id="clip0_330_467">
<rect width="16" height="16" fill="white"/>
</clipPath>
</defs>
</svg>
