<svg width="25" height="28" viewBox="0 0 25 28" fill="none" xmlns="http://www.w3.org/2000/svg">
<g clip-path="url(#clip0_352_244)">
<path fill-rule="evenodd" clip-rule="evenodd" d="M12.9789 0.55599C14.6409 1.64597 16.433 2.52326 18.3132 3.16732C19.7084 3.6526 21.187 3.85177 22.6609 3.75293L24.1898 3.61393L24.265 5.14974C24.5453 10.7985 23.6339 15.7067 21.7221 19.5781C19.7328 23.6068 16.6749 26.5166 12.7488 27.9932H11.7279C7.89069 26.5918 4.85553 23.7617 2.84121 19.6829C0.961327 15.8548 -0.00253983 10.9102 0.152408 5.01302L0.193424 3.49772L1.69961 3.5752C3.33924 3.68158 4.98511 3.51291 6.56907 3.07617C8.28365 2.57533 9.88475 1.74654 11.2836 0.635742L12.1016 0L12.9789 0.55599ZM12.1973 4.39779C15.2803 6.35287 18.0648 7.278 20.4551 7.0638C20.8721 15.4948 17.7549 21.9388 12.2292 24.0192C6.89036 22.071 3.73444 15.8503 3.96914 6.92936C6.77415 7.07747 9.52904 6.47363 12.1973 4.39779ZM10.5066 14.0387C10.7193 14.2202 10.9202 14.415 11.1081 14.6221C11.6762 13.7062 12.3058 12.8299 12.9926 11.9994C14.8702 9.7321 14.3096 9.88021 16.9141 9.88021L16.5427 10.2813C15.5649 11.3781 14.6663 12.5432 13.8539 13.7676C12.9507 15.0736 12.1318 16.436 11.4021 17.8464L11.1742 18.2816L10.9669 17.8395C10.5986 17.0356 10.1325 16.2802 9.57917 15.5905C9.07995 14.9598 8.4839 14.4122 7.81322 13.9681C8.15273 12.8538 9.77057 13.4258 10.4952 14.0387H10.5066ZM12.1882 1.80241C16.1485 4.30892 19.7237 5.49837 22.7953 5.22038C23.3308 16.0645 19.3249 23.944 12.2292 26.6169C5.37734 24.1126 1.32363 16.5088 1.62441 5.05404C5.22695 5.24089 8.76341 4.46387 12.1882 1.80241Z" fill="#1EC089"/>
</g>
<defs>
<clipPath id="clip0_352_244">
<rect width="24.1787" height="28" fill="white" transform="translate(0.136475)"/>
</clipPath>
</defs>
</svg>
