<svg width="40" height="41" viewBox="0 0 40 41" fill="none" xmlns="http://www.w3.org/2000/svg">
<g filter="url(#filter0_b_330_363)">
<circle cx="19.9849" cy="19.9849" r="19.9849" fill="#F9F9F9" fill-opacity="0.4"/>
</g>
<g filter="url(#filter1_d_330_363)">
<circle cx="20.2266" cy="20.2266" r="15.2266" fill="#F9F9F9"/>
</g>
<path d="M21.5238 16.5434C19.4081 17.1406 19.2608 17.16 17.4609 18.1742" stroke="#24C690" stroke-width="1.5" stroke-linecap="round" stroke-linejoin="round"/>
<path d="M21.5238 23.5417C19.4091 22.9444 19.2618 22.925 17.4619 21.9118" stroke="#24C690" stroke-width="1.5" stroke-linecap="round" stroke-linejoin="round"/>
<path d="M23.595 18.1286C24.9212 18.1286 25.6672 17.3821 25.6672 16.0557C25.6672 14.7293 24.9212 13.9828 23.5941 13.9828C22.2688 13.9828 21.5229 14.7293 21.5229 16.0557C21.5229 17.383 22.2688 18.1286 23.5941 18.1286H23.595Z" stroke="#24C690" stroke-width="1.5" stroke-linecap="round" stroke-linejoin="round"/>
<path d="M23.595 26.1023C24.9212 26.1023 25.6672 25.3557 25.6672 24.0293C25.6672 22.702 24.9212 21.9564 23.595 21.9564C22.2698 21.9564 21.5238 22.703 21.5238 24.0293C21.5238 25.3557 22.2698 26.1023 23.595 26.1023Z" stroke="#24C690" stroke-width="1.5" stroke-linecap="round" stroke-linejoin="round"/>
<path d="M16.405 22.1154C17.7302 22.1154 18.4762 21.3689 18.4762 20.0425C18.4762 18.7152 17.7302 17.9696 16.405 17.9696C15.0787 17.9696 14.3328 18.7162 14.3328 20.0425C14.3328 21.3689 15.0787 22.1154 16.405 22.1154Z" stroke="#24C690" stroke-width="1.5" stroke-linecap="round" stroke-linejoin="round"/>
<defs>
<filter id="filter0_b_330_363" x="-30" y="-30" width="99.9698" height="99.9698" filterUnits="userSpaceOnUse" color-interpolation-filters="sRGB">
<feFlood flood-opacity="0" result="BackgroundImageFix"/>
<feGaussianBlur in="BackgroundImageFix" stdDeviation="15"/>
<feComposite in2="SourceAlpha" operator="in" result="effect1_backgroundBlur_330_363"/>
<feBlend mode="normal" in="SourceGraphic" in2="effect1_backgroundBlur_330_363" result="shape"/>
</filter>
<filter id="filter1_d_330_363" x="1.19335" y="2.14502" width="38.0665" height="38.0665" filterUnits="userSpaceOnUse" color-interpolation-filters="sRGB">
<feFlood flood-opacity="0" result="BackgroundImageFix"/>
<feColorMatrix in="SourceAlpha" type="matrix" values="0 0 0 0 0 0 0 0 0 0 0 0 0 0 0 0 0 0 127 0" result="hardAlpha"/>
<feOffset dy="0.951662"/>
<feGaussianBlur stdDeviation="1.90332"/>
<feComposite in2="hardAlpha" operator="out"/>
<feColorMatrix type="matrix" values="0 0 0 0 0 0 0 0 0 0 0 0 0 0 0 0 0 0 0.15 0"/>
<feBlend mode="normal" in2="BackgroundImageFix" result="effect1_dropShadow_330_363"/>
<feBlend mode="normal" in="SourceGraphic" in2="effect1_dropShadow_330_363" result="shape"/>
</filter>
</defs>
</svg>
