<svg width="18" height="19" viewBox="0 0 18 19" fill="none" xmlns="http://www.w3.org/2000/svg">
<g id="shopping-building--real-home-tower-building-house-estate">
<path id="Vector 236" d="M1.81726 4.62338C0.915096 6.8788 0.922721 13.1145 1.08181 16.1687C1.11668 16.838 1.67536 17.3435 2.34562 17.3435H10.4213C11.0915 17.3435 11.6502 16.838 11.6851 16.1687C11.8442 13.1145 11.8518 6.8788 10.9496 4.62338C10.4177 3.91409 9.10485 2.45286 7.50643 1.37176C6.82614 0.911642 5.94074 0.911642 5.26045 1.37176C3.66204 2.45286 2.34922 3.91409 1.81726 4.62338Z" fill="white" stroke="#1EC089" stroke-width="1.5" stroke-linecap="round" stroke-linejoin="round"/>
<path id="Subtract" d="M11.6005 8.21112H14.547C15.585 8.21112 16.4781 8.71754 16.6709 9.73751C16.9667 11.3023 17.1592 13.9565 16.8205 17.3435H10.4213C11.0915 17.3435 11.6502 16.838 11.6851 16.1687C11.7877 14.1991 11.8273 10.9063 11.6005 8.21112Z" fill="#33D69F" fill-opacity="0.15" stroke="#1EC089" stroke-width="1.5" stroke-linecap="round" stroke-linejoin="round"/>
<path id="Vector 232" d="M5.73113 10.4942H7.03576" stroke="#1EC089" stroke-width="1.5" stroke-linecap="round" stroke-linejoin="round"/>
<path id="Vector 234" d="M6.38344 17.347V14.4081" stroke="#1EC089" stroke-width="1.5" stroke-linecap="round" stroke-linejoin="round"/>
<path id="Vector 235" d="M5.73113 6.58034H7.03576" stroke="#1EC089" stroke-width="1.5" stroke-linecap="round" stroke-linejoin="round"/>
</g>
</svg>
